<svg xmlns="http://www.w3.org/2000/svg" viewBox="0 0 32 32" fill="none">
  <!-- DNA double helix simplified monogram -->
  <path d="M10 4 C10 4, 16 10, 22 10 C22 10, 16 16, 10 16 C10 16, 16 22, 22 22 C22 22, 16 28, 10 28" stroke="#6e7bb8" stroke-width="2" fill="none" stroke-linecap="round"/>
  <path d="M22 4 C22 4, 16 10, 10 10 C10 10, 16 16, 22 16 C22 16, 16 22, 10 22 C10 22, 16 28, 22 28" stroke="#7a9a6d" stroke-width="2" fill="none" stroke-linecap="round"/>
  <!-- Rungs -->
  <line x1="12" y1="7" x2="20" y2="7" stroke="#8a8278" stroke-width="1" stroke-linecap="round"/>
  <line x1="12" y1="13" x2="20" y2="13" stroke="#8a8278" stroke-width="1" stroke-linecap="round"/>
  <line x1="12" y1="19" x2="20" y2="19" stroke="#8a8278" stroke-width="1" stroke-linecap="round"/>
  <line x1="12" y1="25" x2="20" y2="25" stroke="#8a8278" stroke-width="1" stroke-linecap="round"/>
</svg>
